/* XPM */
static char *hide_xpm[] = {
"26 26 59 1",
"A	c #FF0400",
"B	c #1A1E24",
"C	c #2C1C21",
"D	c #601619",
"E	c #BA0C0B",
"F	c #F70501",
"G	c #FF0400",
"H	c #B90C0B",
"I	c #5F1619",
"J	c #2D1C21",
"K	c #C40B09",
"L	c #DE0705",
"M	c #961011",
"N	c #761416",
"O	c #971010",
"P	c #DF0705",
"Q	c #C20B0A",
"R	c #E00705",
"S	c #F30602",
"T	c #6F1417",
"U	c #1C1E24",
"V	c #711516",
"W	c #F40502",
"X	c #C30B09",
"Y	c #46191D",
"Z	c #47191D",
"a	c #C10B0A",
"b	c #5E1619",
"c	c #271C22",
"d	c #B80C0B",
"e	c #3F1A1E",
"f	c #1B1E24",
"g	c #F60501",
"h	c #381B1F",
"i	c #E50704",
"j	c #E90703",
"k	c #981010",
"l	c #F50502",
"m	c #751416",
"n	c #361A20",
"o	c #E10705",
"p	c #EB0703",
"q	c #411A1E",
"r	c #3D1A1E",
"s	c #E80704",
"t	c #391B1F",
"u	c #761415",
"v	c #2B1C21",
"w	c #771415",
"x	c #2A1C21",
"y	c #990F10",
"z	c #1D1E24",
"0	c #B70C0B",
"1	c #701516",
"2	c #731416",
"3	c #5D1619",
"4	c #48191D",
"5	c #BF0B0A",
"6	c #721416",
"AAAAAAAAAAAAAAAAAAAAAAAAAA",
"BBBBBBBBBBBBBBBBBBBBBBBBBB",
"BBBBBBBBBBBBBBBBBBBBBBBBBB",
"BBBBBBBBBBBBBBBBBBBBBBBBBB",
"BBBBBBBBBBBBCCBBBBBBBBBBBB",
"BBBBBBBBBDEFGGFHIBBBBBBBBB",
"BBBBBBBJKGLMNNOPGQCBBBBBBB",
"BBBBBBJRSTUBBBBUVWPCBBBBBB",
"BBBBBBXSYBBBBBBBBZWaBBBBBB",
"BBBBBDGTBBBBBBBBBBVGbBBBBB",
"BBBBBELUcdeBBBBedcUPdBBBBB",
"BBBBfgMBhijeBBejihBklfBBBB",
"BBBBCGmBBnopqrsitBBuGvBBBB",
"BBBBvGNBBBtijjitBBBwGxBBBB",
"BBBBfgOBBBBtiitBBBByWfBBBB",
"BBBBBHLUBBBBttBBBBzR0BBBBB",
"BBBBBIG1BBBBBBBBBB2G3BBBBB",
"BBBBBBQWZBBBBBBBB4W5BBBBBB",
"BBBBBBCPW6UBBBBU2lLvBBBBBB",
"BBBBBBBCaGRkuukRG5vBBBBBBB",
"BBBBBBBBBbdlGGl03BBBBBBBBB",
"BBBBBBBBBBBBvvBBBBBBBBBBBB",
"BBBBBBBBBBBBBBBBBBBBBBBBBB",
"BBBBBBBBBBBBBBBBBBBBBBBBBB",
"BBBBBBBBBBBBBBBBBBBBBBBBBB",
"BBBBBBBBBBBBBBBBBBBBBBBBBB"
};
