/* XPM */
static char *maximize_xpm[] = {
"26 26 13 1",
"0	c #FF0400",
"1	c #1A1E24",
"2	c #301B20",
"3	c #631519",
"4	c #661518",
"5	c #F10602",
"6	c #FF0400",
"7	c #5F1619",
"8	c #961011",
"9	c #621619",
"A	c #301B21",
"B	c #F00602",
"C	c #2F1B21",
"00000000000000000000000000",
"11111111111111111111111111",
"11111111111111111111111111",
"11111111111111111111111111",
"11111111111111111111111111",
"11111123444441111111111111",
"11111256666661111111111111",
"11111768444441111111111111",
"11111969111111111111111111",
"11111969111111111111111111",
"11111969111111111111111111",
"11111969111111111111111111",
"11111969111111111111111111",
"11111969111111111196911111",
"11111969111111111196911111",
"11111969111111111196911111",
"11111969111111111196911111",
"11111969111111111196911111",
"11111768444444444486711111",
"11111AB666666666666BC11111",
"111111A344444444443C111111",
"11111111111111111111111111",
"11111111111111111111111111",
"11111111111111111111111111",
"11111111111111111111111111",
"11111111111111111111111111"
};
