/* XPM */
static char *shade_xpm[] = {
"26 26 4 1",
"0	c #FF0400",
"1	c #1A1E24",
"2	c #C00B0A",
"3	c #D10907",
"00000000000000000000000000",
"11111111111111111111111111",
"11111111111111111111111111",
"11111111111111111111111111",
"11111111111111111111111111",
"11111111111111111111111111",
"11111111111111111111111111",
"11111111111111111111111111",
"11111111111111111111111111",
"11111111111111111111111111",
"11111111111111111111111111",
"11111111111111111111111111",
"11111123333333333332111111",
"11111123333333333332111111",
"11111111111111111111111111",
"11111111111111111111111111",
"11111111111111111111111111",
"11111111111111111111111111",
"11111111111111111111111111",
"11111111111111111111111111",
"11111111111111111111111111",
"11111111111111111111111111",
"11111111111111111111111111",
"11111111111111111111111111",
"11111111111111111111111111",
"11111111111111111111111111"
};
