/* XPM */
static char *close_xpm[] = {
"26 26 47 1",
"A	c #77E011",
"B	c #1A1E24",
"C	c #212E22",
"D	c #365A1E",
"E	c #5BA517",
"F	c #74D911",
"G	c #77E011",
"H	c #5BA417",
"I	c #36591E",
"J	c #222E22",
"K	c #5FAE16",
"L	c #6AC314",
"M	c #4C871A",
"N	c #406C1D",
"O	c #4D8819",
"P	c #6AC414",
"Q	c #5EAC16",
"R	c #6BC514",
"S	c #72D712",
"T	c #3C661D",
"U	c #1B2024",
"V	c #3D681C",
"W	c #72D612",
"X	c #5FAD16",
"Y	c #2C4320",
"Z	c #2C4420",
"a	c #5EAB16",
"b	c #35581E",
"c	c #5AA417",
"d	c #1A1F24",
"e	c #73D811",
"f	c #4D8919",
"g	c #73D712",
"h	c #3F6B1D",
"i	c #3F6C1C",
"j	c #212D22",
"k	c #406D1C",
"l	c #202C22",
"m	c #4E8919",
"n	c #1B2124",
"o	c #5AA317",
"p	c #3D671C",
"q	c #3E691D",
"r	c #35571E",
"s	c #2D4520",
"t	c #5DAA16",
"u	c #3E681D",
"AAAAAAAAAAAAAAAAAAAAAAAAAA",
"BBBBBBBBBBBBBBBBBBBBBBBBBB",
"BBBBBBBBBBBBBBBBBBBBBBBBBB",
"BBBBBBBBBBBBBBBBBBBBBBBBBB",
"BBBBBBBBBBBBCCBBBBBBBBBBBB",
"BBBBBBBBBDEFGGFHIBBBBBBBBB",
"BBBBBBBJKGLMNNOPGQCBBBBBBB",
"BBBBBBJRSTUBBBBUVWPCBBBBBB",
"BBBBBBXSYBBBBBBBBZWaBBBBBB",
"BBBBBDGTBBBBBBBBBBVGbBBBBB",
"BBBBBELUBBBBBBBBBBUPcBBBBB",
"BBBBdeMBBBBBBBBBBBBfgdBBBB",
"BBBBCGhBBBBBBBBBBBBiGjBBBB",
"BBBBjGNBBBBBBBBBBBBkGlBBBB",
"BBBBdeOBBBBBBBBBBBBmWdBBBB",
"BBBBBHLUBBBBBBBBBBnRoBBBBB",
"BBBBBIGpBBBBBBBBBBqGrBBBBB",
"BBBBBBQWZBBBBBBBBsWtBBBBBB",
"BBBBBBCPWuUBBBBUqgLjBBBBBB",
"BBBBBBBCaGRfiifRGtjBBBBBBB",
"BBBBBBBBBbcgGGgorBBBBBBBBB",
"BBBBBBBBBBBBjjBBBBBBBBBBBB",
"BBBBBBBBBBBBBBBBBBBBBBBBBB",
"BBBBBBBBBBBBBBBBBBBBBBBBBB",
"BBBBBBBBBBBBBBBBBBBBBBBBBB",
"BBBBBBBBBBBBBBBBBBBBBBBBBB"
};
