/* XPM */
static char *shade_xpm[] = {
"26 26 7 1",
"0	c #77E011",
"1	c #1A1E24",
"2	c #77E011",
"3	c #6BC814",
"4	c #6AC314",
"5	c #73D811",
"6	c #5EAC16",
"00000000000000000000000000",
"11111111111111111111111111",
"11111111111111111111111111",
"11111111111111111111111111",
"11111111111111111111111111",
"11111111111111111111111111",
"11111111111111111111111111",
"11111111111111111111111111",
"11111111222222222211111111",
"11111111222222222211111111",
"11111111311111111311111111",
"11111111411111111411111111",
"11111111411111111411111111",
"11111111411111111411111111",
"11111111411111111411111111",
"11111111411111111411111111",
"11111111411111111411111111",
"11111111566666666511111111",
"11111111111111111111111111",
"11111111111111111111111111",
"11111111111111111111111111",
"11111111111111111111111111",
"11111111111111111111111111",
"11111111111111111111111111",
"11111111111111111111111111",
"11111111111111111111111111"
};
