/* XPM */
static char *maximize_xpm[] = {
"26 26 35 1",
"A	c #FDFF00",
"B	c #1A1E24",
"C	c #303420",
"D	c #626519",
"E	c #656918",
"F	c #1D2124",
"G	c #2E3121",
"H	c #EFF102",
"I	c #FDFF00",
"J	c #ACAF0D",
"K	c #DDDF05",
"L	c #5E6219",
"M	c #959811",
"N	c #616519",
"O	c #AAAD0D",
"P	c #B0B20C",
"Q	c #1E2223",
"R	c #363920",
"S	c #565A1A",
"T	c #252922",
"U	c #ABAE0D",
"V	c #818414",
"W	c #42451E",
"X	c #43471E",
"Y	c #AAAC0D",
"Z	c #C8CB08",
"a	c #CDCF08",
"b	c #4A4E1C",
"c	c #484B1D",
"d	c #51541B",
"e	c #848713",
"f	c #333720",
"g	c #303321",
"h	c #EEF002",
"i	c #2F3221",
"AAAAAAAAAAAAAAAAAAAAAAAAAA",
"BBBBBBBBBBBBBBBBBBBBBBBBBB",
"BBBBBBBBBBBBBBBBBBBBBBBBBB",
"BBBBBBBBBBBBBBBBBBBBBBBBBB",
"BBBBBBBBBBBBBBBBBBBBBBBBBB",
"BBBBBBCDEEEEEBBBBBFGBBBBBB",
"BBBBBCHIIIIIIBBBBFJKGBBBBB",
"BBBBBLIMEEEEEBBBFJIJFBBBBB",
"BBBBBNINBBBBBBBFOIPQBBBBBB",
"BBBBBNINBBBBBBFOIPQBBBBBBB",
"BBBBBNINBRSTBFUIJFBBBBBBBB",
"BBBBBNINBVIWFOIPQBBBBBBBBB",
"BBBBBNINBVIXYIPQBBBBBBBBBB",
"BBBBBNINBVIZIUFBBBNINBBBBB",
"BBBBBNINBVIIabcTBBNINBBBBB",
"BBBBBNINBVIIIIIdBBNINBBBBB",
"BBBBBNINBbeeeeefBBNINBBBBB",
"BBBBBNINBBBBBBBBBBNINBBBBB",
"BBBBBLIMEEEEEEEEEEMILBBBBB",
"BBBBBghIIIIIIIIIIIIhiBBBBB",
"BBBBBBgDEEEEEEEEEEDiBBBBBB",
"BBBBBBBBBBBBBBBBBBBBBBBBBB",
"BBBBBBBBBBBBBBBBBBBBBBBBBB",
"BBBBBBBBBBBBBBBBBBBBBBBBBB",
"BBBBBBBBBBBBBBBBBBBBBBBBBB",
"BBBBBBBBBBBBBBBBBBBBBBBBBB"
};
