/* XPM */
static char *maximize_xpm[] = {
"26 26 12 1",
"0	c #1A1E24",
"1	c #292D32",
"2	c #4B4D52",
"3	c #4D5054",
"4	c #292C32",
"5	c #AAABAC",
"6	c #B3B4B5",
"7	c #A9AAAB",
"8	c #484B50",
"9	c #6D6F73",
"A	c #4A4D52",
"B	c #282B31",
"00000000000000000000000000",
"00000000000000000000000000",
"00000000000000000000000000",
"00000000000000000000000000",
"00000000000000000000000000",
"00000012333333333324000000",
"00000156666666666667400000",
"00000869333333333396800000",
"00000A6A0000000000A6A00000",
"00000A6A0000000000A6A00000",
"00000A6A0000000000A6A00000",
"00000A6A0000000000A6A00000",
"00000A6A0000000000A6A00000",
"000000000000000000A6A00000",
"000000000000000000A6A00000",
"000000000000000000A6A00000",
"000000000000000000A6A00000",
"000000000000000000A6A00000",
"00000000000003333396800000",
"00000000000006666667B00000",
"0000000000000333332B000000",
"00000000000000000000000000",
"00000000000000000000000000",
"00000000000000000000000000",
"00000000000000000000000000",
"00000000000000000000000000"
};
