/* XPM */
static char *shade_xpm[] = {
"26 26 3 1",
"0	c #1A1E24",
"1	c #898B8D",
"2	c #949698",
"00000000000000000000000000",
"00000000000000000000000000",
"00000000000000000000000000",
"00000000000000000000000000",
"00000000000000000000000000",
"00000000000000000000000000",
"00000000000000000000000000",
"00000000000000000000000000",
"00000000000000000000000000",
"00000000000000000000000000",
"00000000000000000000000000",
"00000000000000000000000000",
"00000012222222222221000000",
"00000012222222222221000000",
"00000000000000000000000000",
"00000000000000000000000000",
"00000000000000000000000000",
"00000000000000000000000000",
"00000000000000000000000000",
"00000000000000000000000000",
"00000000000000000000000000",
"00000000000000000000000000",
"00000000000000000000000000",
"00000000000000000000000000",
"00000000000000000000000000",
"00000000000000000000000000"
};
