/* XPM */
static char *stick_xpm[] = {
"26 26 10 1",
"0	c #FDFF00",
"1	c #1A1E24",
"2	c #1B1F24",
"3	c #3C401F",
"4	c #3D401E",
"5	c #D4D606",
"6	c #FDFF00",
"7	c #1C2024",
"8	c #3B3F1F",
"9	c #D2D507",
"00000000000000000000000000",
"11111111111111111111111111",
"11111111111111111111111111",
"11111111111111111111111111",
"11111111111111111111111111",
"11111111111111111111111111",
"11111111111111111111111111",
"11111111111111111111111111",
"11111111111111111111111111",
"11111111111233211111111111",
"11111111114566031111111111",
"11111111170666602111111111",
"11111111146666663111111111",
"11111111136666668111111111",
"11111111120666692111111111",
"11111111113066981111111111",
"11111111111233211111111111",
"11111111111111111111111111",
"11111111111111111111111111",
"11111111111111111111111111",
"11111111111111111111111111",
"11111111111111111111111111",
"11111111111111111111111111",
"11111111111111111111111111",
"11111111111111111111111111",
"11111111111111111111111111"
};
