<?xml version="1.0" encoding="UTF-8" standalone="no"?>
<!-- Created with Inkscape (http://www.inkscape.org/) -->

<svg
   xmlns:dc="http://purl.org/dc/elements/1.1/"
   xmlns:cc="http://creativecommons.org/ns#"
   xmlns:rdf="http://www.w3.org/1999/02/22-rdf-syntax-ns#"
   xmlns:svg="http://www.w3.org/2000/svg"
   xmlns="http://www.w3.org/2000/svg"
   xmlns:sodipodi="http://sodipodi.sourceforge.net/DTD/sodipodi-0.dtd"
   xmlns:inkscape="http://www.inkscape.org/namespaces/inkscape"
   width="108"
   height="108"
   viewBox="0 0 108 108"
   version="1.1"
   id="svg8"
   inkscape:version="0.92.4 (5da689c313, 2019-01-14)"
   sodipodi:docname="background.svg">
  <defs
     id="defs2" />
  <style
     id="current-color-scheme"
     type="text/css">
      .ColorScheme-Background{
        color:#1A1E24;
      }
      .ColorScheme-Highlight{
        color:#F9F9F9;
      }
  </style>
  <g
     inkscape:label="Layer 1"
     inkscape:groupmode="layer"
     id="layer1"
     transform="translate(-122.85715,-448.80536)">
    <rect
       y="478.80536"
       x="152.85715"
       height="48"
       width="48"
       id="center"
       class="ColorScheme-Background"
       style="fill:currentColor" />
    <g
       id="top"
       inkscape:label="#g900">
      <rect
         style="fill:currentColor"
         class="ColorScheme-Background"
         id="rect834"
         width="48"
         height="5"
         x="152.85715"
         y="473.80536" />
      <path
         class="ColorScheme-Highlight"
         style="fill:currentColor"
         d="m 152.85715,473.80536 v 0.48438 0.51562 0.48438 h 48 v -0.48438 -0.51562 -0.48438 z"
         id="rect825"
         inkscape:connector-curvature="0" />
    </g>
    <g
       id="topleft"
       inkscape:label="#g895">
      <rect
         y="147.85715"
         x="473.80536"
         height="5"
         width="5"
         id="rect1670"
         class="ColorScheme-Background"
         style="fill:currentColor"
         transform="matrix(0,1,1,0,0,0)" />
      <path
         style="fill:currentColor"
         class="ColorScheme-Highlight"
         d="m 147.85715,473.80536 v 1 4 h 0.48047 0.51953 0.48047 v -3.51562 h 3.51953 v -1 -0.48438 z"
         id="rect1672"
         inkscape:connector-curvature="0" />
    </g>
    <rect
       y="473.80539"
       x="152.85715"
       height="5"
       width="1"
       id="hint-top-margin"
       style="fill:#008000" />
    <g
       id="bottom"
       inkscape:label="#g936">
      <rect
         transform="scale(-1)"
         style="fill:currentColor"
         class="ColorScheme-Background"
         id="rect834-5"
         width="48"
         height="5"
         x="-200.85715"
         y="-531.80536" />
      <path
         style="fill:currentColor"
         class="ColorScheme-Highlight"
         d="m 152.85715,530.32099 v 0.48437 0.51563 0.48437 h 48 v -0.48437 -0.51563 -0.48437 z"
         id="rect825-6"
         inkscape:connector-curvature="0" />
    </g>
    <rect
       style="fill:#008000"
       id="hint-bottom-margin"
       width="1"
       height="5"
       x="199.85715"
       y="526.80536" />
    <g
       id="right"
       inkscape:label="#g912">
      <rect
         transform="rotate(90)"
         style="fill:currentColor"
         class="ColorScheme-Background"
         id="rect834-1"
         width="48"
         height="5"
         x="478.80536"
         y="-205.85718" />
      <path
         style="fill:currentColor"
         class="ColorScheme-Highlight"
         d="m 204.37277,478.80536 v 48 h 0.48438 0.51562 0.48438 v -48 h -0.48438 -0.51562 z"
         id="rect825-2"
         inkscape:connector-curvature="0" />
    </g>
    <rect
       y="478.80536"
       x="200.85716"
       height="1"
       width="5"
       id="hint-right-margin"
       style="fill:#008000" />
    <g
       id="left"
       inkscape:label="#g931">
      <rect
         transform="rotate(-90)"
         style="fill:currentColor"
         class="ColorScheme-Background"
         id="rect834-6"
         width="48"
         height="5"
         x="-526.80536"
         y="147.85715" />
      <path
         style="fill:currentColor"
         class="ColorScheme-Highlight"
         d="M 25 30 L 25 78 L 25.484375 78 L 26 78 L 26.484375 78 L 26.484375 30 L 26 30 L 25.484375 30 L 25 30 z "
         transform="translate(122.85715,448.80536)"
         id="rect825-7" />
    </g>
    <rect
       style="fill:#008000"
       id="hint-left-margin"
       width="5"
       height="1"
       x="147.85715"
       y="525.80536" />
    <g
       id="topright"
       inkscape:label="#g907">
      <rect
         y="473.81049"
         x="-205.85715"
         height="5"
         width="5"
         id="rect1670-9"
         class="ColorScheme-Background"
         style="fill:currentColor"
         transform="scale(-1,1)" />
      <path
         style="fill:currentColor"
         class="ColorScheme-Highlight"
         d="m 200.85715,473.81122 v 0.47852 0.52148 0.47852 h 3.51562 v 3.52148 h 1 0.48438 v -5 h -1 z"
         id="rect1672-3"
         inkscape:connector-curvature="0" />
    </g>
    <g
       id="bottomright"
       inkscape:label="#g919">
      <rect
         y="-205.85205"
         x="-531.80536"
         height="5"
         width="5"
         id="rect1670-6"
         class="ColorScheme-Background"
         style="fill:currentColor"
         transform="matrix(0,-1,-1,0,0,0)" />
      <path
         style="fill:currentColor"
         class="ColorScheme-Highlight"
         d="m 204.37277,526.80536 v 3.51563 h -3.52148 v 1 0.48437 h 5 v -1 -4 h -0.47852 -0.52148 z"
         id="rect1672-1"
         inkscape:connector-curvature="0" />
    </g>
    <g
       id="bottomleft"
       inkscape:label="#g926">
      <rect
         y="-531.80536"
         x="147.85715"
         height="5"
         width="5"
         id="rect1670-2"
         class="ColorScheme-Background"
         style="fill:currentColor"
         transform="scale(1,-1)" />
      <path
         class="ColorScheme-Highlight"
         style="fill:currentColor"
         d="m 147.85715,526.80536 v 5 h 1 4 v -0.48047 -0.51953 -0.48047 h -3.51563 v -3.51953 h -0.48437 z"
         id="rect1672-37"
         inkscape:connector-curvature="0" />
    </g>
  </g>
</svg>
