/* XPM */
static char *maximize_xpm[] = {
"26 26 12 1",
"0	c #1A1E24",
"1	c #173139",
"2	c #125B6A",
"3	c #115E6D",
"4	c #02D3F1",
"5	c #00DFFF",
"6	c #125866",
"7	c #0C879B",
"8	c #125B69",
"9	c #183039",
"A	c #02D2F0",
"B	c #182F38",
"55555555555555555555555555",
"00000000000000000000000000",
"00000000000000000000000000",
"00000000000000000000000000",
"00000000000000000000000000",
"00000012333330000000000000",
"00000145555550000000000000",
"00000657333330000000000000",
"00000858000000000000000000",
"00000858000000000000000000",
"00000858000000000000000000",
"00000858000000000000000000",
"00000858000000000000000000",
"00000858000000000085800000",
"00000858000000000085800000",
"00000858000000000085800000",
"00000858000000000085800000",
"00000858000000000085800000",
"00000657333333333375600000",
"000009A555555555555AB00000",
"0000009233333333332B000000",
"00000000000000000000000000",
"00000000000000000000000000",
"00000000000000000000000000",
"00000000000000000000000000",
"00000000000000000000000000"
};
