/* XPM */
static char *maximize_xpm[] = {
"26 26 12 1",
"0	c #1A1E24",
"1	c #173139",
"2	c #125B6A",
"3	c #115E6D",
"4	c #183039",
"5	c #02D3F1",
"6	c #00DFFF",
"7	c #02D2F0",
"8	c #125866",
"9	c #0C879B",
"A	c #125B69",
"B	c #182F38",
"66666666666666666666666666",
"00000000000000000000000000",
"00000000000000000000000000",
"00000000000000000000000000",
"00000000000000000000000000",
"00000012333333333324000000",
"00000156666666666667400000",
"00000869333333333396800000",
"00000A6A0000000000A6A00000",
"00000A6A0000000000A6A00000",
"00000A6A0000000000A6A00000",
"00000A6A0000000000A6A00000",
"00000A6A0000000000A6A00000",
"000000000000000000A6A00000",
"000000000000000000A6A00000",
"000000000000000000A6A00000",
"000000000000000000A6A00000",
"000000000000000000A6A00000",
"00000000000003333396800000",
"00000000000006666667B00000",
"0000000000000333332B000000",
"00000000000000000000000000",
"00000000000000000000000000",
"00000000000000000000000000",
"00000000000000000000000000",
"00000000000000000000000000"
};
