/* XPM */
static char *shade_xpm[] = {
"26 26 6 1",
"0	c #1A1E24",
"1	c #00DFFF",
"2	c #03C7E4",
"3	c #04C3DF",
"4	c #01D7F6",
"5	c #07ACC5",
"11111111111111111111111111",
"00000000000000000000000000",
"00000000000000000000000000",
"00000000000000000000000000",
"00000000000000000000000000",
"00000000000000000000000000",
"00000000000000000000000000",
"00000000000000000000000000",
"00000000111111111100000000",
"00000000111111111100000000",
"00000000200000000200000000",
"00000000300000000300000000",
"00000000300000000300000000",
"00000000300000000300000000",
"00000000300000000300000000",
"00000000300000000300000000",
"00000000300000000300000000",
"00000000455555555400000000",
"00000000000000000000000000",
"00000000000000000000000000",
"00000000000000000000000000",
"00000000000000000000000000",
"00000000000000000000000000",
"00000000000000000000000000",
"00000000000000000000000000",
"00000000000000000000000000"
};
