/* XPM */
static char *shade_xpm[] = {
"26 26 6 1",
"0	c #1A1E24",
"1	c #B3B4B5",
"2	c #A0A1A3",
"3	c #9D9EA0",
"4	c #ADAEAF",
"5	c #8A8C8F",
"00000000000000000000000000",
"00000000000000000000000000",
"00000000000000000000000000",
"00000000000000000000000000",
"00000000000000000000000000",
"00000000000000000000000000",
"00000000000000000000000000",
"00000000000000000000000000",
"00000000111111111100000000",
"00000000111111111100000000",
"00000000200000000200000000",
"00000000300000000300000000",
"00000000300000000300000000",
"00000000300000000300000000",
"00000000300000000300000000",
"00000000300000000300000000",
"00000000300000000300000000",
"00000000455555555400000000",
"00000000000000000000000000",
"00000000000000000000000000",
"00000000000000000000000000",
"00000000000000000000000000",
"00000000000000000000000000",
"00000000000000000000000000",
"00000000000000000000000000",
"00000000000000000000000000"
};
