/* XPM */
static char *close_xpm[] = {
"26 26 45 1",
"A	c #D900FF",
"B	c #1A1E24",
"C	c #291C35",
"D	c #541567",
"E	c #9F09BD",
"F	c #D201F7",
"G	c #D900FF",
"H	c #9F09BC",
"I	c #541566",
"J	c #2A1C36",
"K	c #A808C6",
"L	c #BE04DF",
"M	c #810E9B",
"N	c #67127C",
"O	c #820E9B",
"P	c #BE04E0",
"Q	c #A608C5",
"R	c #BF04E1",
"S	c #CF02F4",
"T	c #611376",
"U	c #1C1E26",
"V	c #631377",
"W	c #D001F5",
"X	c #A708C5",
"Y	c #3F184E",
"Z	c #40184F",
"a	c #A508C4",
"b	c #531565",
"c	c #9E09BB",
"d	c #1B1E25",
"e	c #D101F6",
"f	c #830E9C",
"g	c #66127B",
"h	c #281C34",
"i	c #67127D",
"j	c #271C33",
"k	c #840D9D",
"l	c #1D1E27",
"m	c #9D09BA",
"n	c #621376",
"o	c #641279",
"p	c #521564",
"q	c #401850",
"r	c #A408C2",
"s	c #631278",
"AAAAAAAAAAAAAAAAAAAAAAAAAA",
"BBBBBBBBBBBBBBBBBBBBBBBBBB",
"BBBBBBBBBBBBBBBBBBBBBBBBBB",
"BBBBBBBBBBBBBBBBBBBBBBBBBB",
"BBBBBBBBBBBBCCBBBBBBBBBBBB",
"BBBBBBBBBDEFGGFHIBBBBBBBBB",
"BBBBBBBJKGLMNNOPGQCBBBBBBB",
"BBBBBBJRSTUBBBBUVWPCBBBBBB",
"BBBBBBXSYBBBBBBBBZWaBBBBBB",
"BBBBBDGTBBBBBBBBBBVGbBBBBB",
"BBBBBELUBBBBBBBBBBUPcBBBBB",
"BBBBdeMBBBBBBBBBBBBfedBBBB",
"BBBBCGgBBBBBBBBBBBBNGhBBBB",
"BBBBhGNBBBBBBBBBBBBiGjBBBB",
"BBBBdeOBBBBBBBBBBBBkWdBBBB",
"BBBBBHLUBBBBBBBBBBlRmBBBBB",
"BBBBBIGnBBBBBBBBBBoGpBBBBB",
"BBBBBBQWZBBBBBBBBqWrBBBBBB",
"BBBBBBCPWsUBBBBUoeLhBBBBBB",
"BBBBBBBCaGRfNNfRGrhBBBBBBB",
"BBBBBBBBBbceGGempBBBBBBBBB",
"BBBBBBBBBBBBhhBBBBBBBBBBBB",
"BBBBBBBBBBBBBBBBBBBBBBBBBB",
"BBBBBBBBBBBBBBBBBBBBBBBBBB",
"BBBBBBBBBBBBBBBBBBBBBBBBBB",
"BBBBBBBBBBBBBBBBBBBBBBBBBB"
};
