/* XPM */
static char *close_xpm[] = {
"26 26 51 1",
"A	c #D900FF",
"B	c #1A1E24",
"C	c #291C35",
"D	c #541567",
"E	c #9F09BD",
"F	c #D201F7",
"G	c #D900FF",
"H	c #9F09BC",
"I	c #541566",
"J	c #2A1C36",
"K	c #A808C6",
"L	c #BE04DF",
"M	c #810E9B",
"N	c #67127C",
"O	c #820E9B",
"P	c #BE04E0",
"Q	c #A608C5",
"R	c #BF04E1",
"S	c #CF02F4",
"T	c #611376",
"U	c #1C1E26",
"V	c #631377",
"W	c #D001F5",
"X	c #A708C5",
"Y	c #3F184E",
"Z	c #3D184C",
"a	c #40184F",
"b	c #A508C4",
"c	c #3E184D",
"d	c #D600FC",
"e	c #531565",
"f	c #7D0E96",
"g	c #850D9E",
"h	c #7E0E97",
"i	c #840D9D",
"j	c #9E09BB",
"k	c #1B1E25",
"l	c #D101F6",
"m	c #830E9C",
"n	c #66127B",
"o	c #281C34",
"p	c #67127D",
"q	c #271C33",
"r	c #1D1E27",
"s	c #9D09BA",
"t	c #621376",
"u	c #641279",
"v	c #521564",
"w	c #401850",
"x	c #A408C2",
"y	c #631278",
"AAAAAAAAAAAAAAAAAAAAAAAAAA",
"BBBBBBBBBBBBBBBBBBBBBBBBBB",
"BBBBBBBBBBBBBBBBBBBBBBBBBB",
"BBBBBBBBBBBBBBBBBBBBBBBBBB",
"BBBBBBBBBBBBCCBBBBBBBBBBBB",
"BBBBBBBBBDEFGGFHIBBBBBBBBB",
"BBBBBBBJKGLMNNOPGQCBBBBBBB",
"BBBBBBJRSTUBBBBUVWPCBBBBBB",
"BBBBBBXSYZBBBBBBZaWbBBBBBB",
"BBBBBDGTcdOBBBBOdcVGeBBBBB",
"BBBBBELUBfGgBBhGiBUPjBBBBB",
"BBBBklMBBBOGMMGOBBBmlkBBBB",
"BBBBCGnBBBBfGGiBBBBNGoBBBB",
"BBBBoGNBBBBfGGiBBBBpGqBBBB",
"BBBBklOBBBOGMMGOBBBiWkBBBB",
"BBBBBHLUBhGiBBfGgBrRsBBBBB",
"BBBBBIGtcdOBBBBOdcuGvBBBBB",
"BBBBBBQWaZBBBBBBZwWxBBBBBB",
"BBBBBBCPWyUBBBBUulLoBBBBBB",
"BBBBBBBCbGRmNNmRGxoBBBBBBB",
"BBBBBBBBBejlGGlsvBBBBBBBBB",
"BBBBBBBBBBBBooBBBBBBBBBBBB",
"BBBBBBBBBBBBBBBBBBBBBBBBBB",
"BBBBBBBBBBBBBBBBBBBBBBBBBB",
"BBBBBBBBBBBBBBBBBBBBBBBBBB",
"BBBBBBBBBBBBBBBBBBBBBBBBBB"
};
