/* XPM */
static char *hide_xpm[] = {
"26 26 58 1",
"A	c #D900FF",
"B	c #1A1E24",
"C	c #291C35",
"D	c #541567",
"E	c #9F09BD",
"F	c #D201F7",
"G	c #D900FF",
"H	c #9F09BC",
"I	c #541566",
"J	c #2A1C36",
"K	c #A808C6",
"L	c #BE04DF",
"M	c #810E9B",
"N	c #67127C",
"O	c #820E9B",
"P	c #BE04E0",
"Q	c #A608C5",
"R	c #BF04E1",
"S	c #CF02F4",
"T	c #611376",
"U	c #1C1E26",
"V	c #631377",
"W	c #D001F5",
"X	c #A708C5",
"Y	c #3F184E",
"Z	c #40184F",
"a	c #A508C4",
"b	c #531565",
"c	c #251C31",
"d	c #9E09BB",
"e	c #391947",
"f	c #1B1E25",
"g	c #D101F6",
"h	c #331A40",
"i	c #C303E6",
"j	c #C703EA",
"k	c #830E9C",
"l	c #66127B",
"m	c #311A3F",
"n	c #C004E3",
"o	c #C803EC",
"p	c #3B1949",
"q	c #371945",
"r	c #C603E9",
"s	c #341A42",
"t	c #281C34",
"u	c #67127D",
"v	c #271C33",
"w	c #341A41",
"x	c #840D9D",
"y	c #1D1E27",
"z	c #9D09BA",
"0	c #621376",
"1	c #641279",
"2	c #521564",
"3	c #401850",
"4	c #A408C2",
"5	c #631278",
"AAAAAAAAAAAAAAAAAAAAAAAAAA",
"BBBBBBBBBBBBBBBBBBBBBBBBBB",
"BBBBBBBBBBBBBBBBBBBBBBBBBB",
"BBBBBBBBBBBBBBBBBBBBBBBBBB",
"BBBBBBBBBBBBCCBBBBBBBBBBBB",
"BBBBBBBBBDEFGGFHIBBBBBBBBB",
"BBBBBBBJKGLMNNOPGQCBBBBBBB",
"BBBBBBJRSTUBBBBUVWPCBBBBBB",
"BBBBBBXSYBBBBBBBBZWaBBBBBB",
"BBBBBDGTBBBBBBBBBBVGbBBBBB",
"BBBBBELUcdeBBBBedcUPdBBBBB",
"BBBBfgMBhijeBBejihBkgfBBBB",
"BBBBCGlBBmnopqrisBBNGtBBBB",
"BBBBtGNBBBsijjisBBBuGvBBBB",
"BBBBfgOBBBBwiiwBBBBxWfBBBB",
"BBBBBHLUBBBBssBBBByRzBBBBB",
"BBBBBIG0BBBBBBBBBB1G2BBBBB",
"BBBBBBQWZBBBBBBBB3W4BBBBBB",
"BBBBBBCPW5UBBBBU1gLtBBBBBB",
"BBBBBBBCaGRkNNkRG4tBBBBBBB",
"BBBBBBBBBbdgGGgz2BBBBBBBBB",
"BBBBBBBBBBBBttBBBBBBBBBBBB",
"BBBBBBBBBBBBBBBBBBBBBBBBBB",
"BBBBBBBBBBBBBBBBBBBBBBBBBB",
"BBBBBBBBBBBBBBBBBBBBBBBBBB",
"BBBBBBBBBBBBBBBBBBBBBBBBBB"
};
