/* XPM */
static char *maximize_xpm[] = {
"26 26 12 1",
"0	c #D900FF",
"1	c #1A1E24",
"2	c #2C1B39",
"3	c #57146A",
"4	c #59146D",
"5	c #CD02F1",
"6	c #D900FF",
"7	c #CD02F0",
"8	c #541566",
"9	c #810E9B",
"A	c #561569",
"B	c #2C1B38",
"00000000000000000000000000",
"11111111111111111111111111",
"11111111111111111111111111",
"11111111111111111111111111",
"11111111111111111111111111",
"11111123444444444432111111",
"11111256666666666667211111",
"11111869444444444496811111",
"11111A6A1111111111A6A11111",
"11111A6A1111111111A6A11111",
"11111A6A1111111111A6A11111",
"11111A6A1111111111A6A11111",
"11111A6A1111111111A6A11111",
"111111111111111111A6A11111",
"111111111111111111A6A11111",
"111111111111111111A6A11111",
"111111111111111111A6A11111",
"111111111111111111A6A11111",
"11111111111114444496811111",
"11111111111116666667B11111",
"1111111111111444443B111111",
"11111111111111111111111111",
"11111111111111111111111111",
"11111111111111111111111111",
"11111111111111111111111111",
"11111111111111111111111111"
};
