/* XPM */
static char *maximize_xpm[] = {
"26 26 12 1",
"0	c #D900FF",
"1	c #1A1E24",
"2	c #2C1B39",
"3	c #57146A",
"4	c #59146D",
"5	c #CD02F1",
"6	c #D900FF",
"7	c #541566",
"8	c #810E9B",
"9	c #561569",
"A	c #CD02F0",
"B	c #2C1B38",
"00000000000000000000000000",
"11111111111111111111111111",
"11111111111111111111111111",
"11111111111111111111111111",
"11111111111111111111111111",
"11111123444441111111111111",
"11111256666661111111111111",
"11111768444441111111111111",
"11111969111111111111111111",
"11111969111111111111111111",
"11111969111111111111111111",
"11111969111111111111111111",
"11111969111111111111111111",
"11111969111111111196911111",
"11111969111111111196911111",
"11111969111111111196911111",
"11111969111111111196911111",
"11111969111111111196911111",
"11111768444444444486711111",
"111112A666666666666AB11111",
"1111112344444444443B111111",
"11111111111111111111111111",
"11111111111111111111111111",
"11111111111111111111111111",
"11111111111111111111111111",
"11111111111111111111111111"
};
