/* XPM */
static char *menu_xpm[] = {
"26 26 7 1",
"0	c #D900FF",
"1	c #1A1E24",
"2	c #221D2D",
"3	c #780F90",
"4	c #D900FF",
"5	c #770F8F",
"6	c #211D2C",
"00000000000000000000000000",
"11111111111111111111111111",
"11111111111111111111111111",
"11111111111111111111111111",
"11111111111111111111111111",
"11111111111111111111111111",
"11111111111111111111111111",
"11111111111111111111111111",
"11111111111111111111111111",
"11111111111111111111111111",
"11111111111111111111111111",
"11111111111233211111111111",
"11111111111344511111111111",
"11111111111344511111111111",
"11111111111255611111111111",
"11111111111111111111111111",
"11111111111111111111111111",
"11111111111111111111111111",
"11111111111111111111111111",
"11111111111111111111111111",
"11111111111111111111111111",
"11111111111111111111111111",
"11111111111111111111111111",
"11111111111111111111111111",
"11111111111111111111111111",
"11111111111111111111111111"
};
