/* XPM */
static char *shade_xpm[] = {
"26 26 8 1",
"0	c #D900FF",
"1	c #1A1E24",
"2	c #D900FF",
"3	c #C104E4",
"4	c #341A41",
"5	c #BE04DF",
"6	c #D101F6",
"7	c #A608C5",
"00000000000000000000000000",
"11111111111111111111111111",
"11111111111111111111111111",
"11111111111111111111111111",
"11111111111111111111111111",
"11111111111111111111111111",
"11111111111111111111111111",
"11111111111111111111111111",
"11111111222222222211111111",
"11111111222222222211111111",
"11111111344444444311111111",
"11111111511111111511111111",
"11111111511111111511111111",
"11111111511111111511111111",
"11111111511111111511111111",
"11111111511111111511111111",
"11111111511111111511111111",
"11111111677777777611111111",
"11111111111111111111111111",
"11111111111111111111111111",
"11111111111111111111111111",
"11111111111111111111111111",
"11111111111111111111111111",
"11111111111111111111111111",
"11111111111111111111111111",
"11111111111111111111111111"
};
