<?xml version="1.0" encoding="UTF-8" standalone="no"?>
<!-- Created with Inkscape (http://www.inkscape.org/) -->

<svg
   xmlns:dc="http://purl.org/dc/elements/1.1/"
   xmlns:cc="http://creativecommons.org/ns#"
   xmlns:rdf="http://www.w3.org/1999/02/22-rdf-syntax-ns#"
   xmlns:svg="http://www.w3.org/2000/svg"
   xmlns="http://www.w3.org/2000/svg"
   xmlns:sodipodi="http://sodipodi.sourceforge.net/DTD/sodipodi-0.dtd"
   xmlns:inkscape="http://www.inkscape.org/namespaces/inkscape"
   width="128"
   height="128"
   id="svg5048"
   version="1.1"
   inkscape:version="0.92.4 (5da689c313, 2019-01-14)"
   sodipodi:docname="Restart.svg">
  <defs
     id="defs12" />
  <sodipodi:namedview
     id="base"
     pagecolor="#000000"
     bordercolor="#000000"
     borderopacity="1.0"
     inkscape:pageopacity="0.2627451"
     inkscape:pageshadow="2"
     inkscape:zoom="3.9765625"
     inkscape:cx="64"
     inkscape:cy="64"
     inkscape:document-units="px"
     inkscape:current-layer="layer1-5"
     showgrid="true"
     inkscape:window-width="1366"
     inkscape:window-height="705"
     inkscape:window-x="0"
     inkscape:window-y="0"
     inkscape:window-maximized="1"
     fit-margin-top="0"
     fit-margin-left="0"
     fit-margin-right="0"
     fit-margin-bottom="0"
     inkscape:snap-bbox="true" />
  <metadata
     id="metadata5053">
    <rdf:RDF>
      <cc:Work
         rdf:about="">
        <dc:format>image/svg+xml</dc:format>
        <dc:type
           rdf:resource="http://purl.org/dc/dcmitype/StillImage" />
        <dc:title></dc:title>
      </cc:Work>
    </rdf:RDF>
  </metadata>
  <g
     inkscape:label="Layer 1"
     inkscape:groupmode="layer"
     id="layer1"
     transform="translate(-6.1297173,-913.75296)">
    <g
       transform="matrix(3.181818,0,0,3.181818,-1217.5066,-701.24058)"
       id="layer1-5"
       inkscape:label="Capa 1">
      <path
         style="opacity:1;fill:#ffffff;fill-opacity:1;stroke-width:3.18181801"
         d="M 64 4.75 A 59.250046 59.250046 0 0 0 4.75 64 A 59.250046 59.250046 0 0 0 64 123.25 A 59.250046 59.250046 0 0 0 117.78125 88.6875 L 112.31445 88.6875 A 54.312542 54.312542 0 0 1 64 118.3125 A 54.312542 54.312542 0 0 1 9.6875 64 A 54.312542 54.312542 0 0 1 64 9.6875 A 54.312542 54.312542 0 0 1 112.32617 39.3125 L 88.6875 39.3125 L 123.25 64 L 123 59.0625 A 59.250046 59.250046 0 0 0 64 4.75 z "
         transform="matrix(0.31428573,0,0,0.31428573,384.57144,507.56943)"
         id="path1112" />
    </g>
  </g>
</svg>
