<?xml version="1.0" encoding="UTF-8" standalone="no"?>
<!-- Created with Inkscape (http://www.inkscape.org/) -->

<svg
   xmlns:dc="http://purl.org/dc/elements/1.1/"
   xmlns:cc="http://creativecommons.org/ns#"
   xmlns:rdf="http://www.w3.org/1999/02/22-rdf-syntax-ns#"
   xmlns:svg="http://www.w3.org/2000/svg"
   xmlns="http://www.w3.org/2000/svg"
   xmlns:sodipodi="http://sodipodi.sourceforge.net/DTD/sodipodi-0.dtd"
   xmlns:inkscape="http://www.inkscape.org/namespaces/inkscape"
   width="128"
   height="128"
   id="svg5048"
   version="1.1"
   inkscape:version="0.92.4 (5da689c313, 2019-01-14)"
   sodipodi:docname="Switch.svg">
  <defs
     id="defs12" />
  <sodipodi:namedview
     id="base"
     pagecolor="#000000"
     bordercolor="#000000"
     borderopacity="1.0"
     inkscape:pageopacity="0.2627451"
     inkscape:pageshadow="2"
     inkscape:zoom="3.9765625"
     inkscape:cx="64"
     inkscape:cy="64"
     inkscape:document-units="px"
     inkscape:current-layer="layer1-5"
     showgrid="true"
     inkscape:window-width="1366"
     inkscape:window-height="705"
     inkscape:window-x="0"
     inkscape:window-y="0"
     inkscape:window-maximized="1"
     fit-margin-top="0"
     fit-margin-left="0"
     fit-margin-right="0"
     fit-margin-bottom="0"
     inkscape:snap-bbox="true" />
  <metadata
     id="metadata5053">
    <rdf:RDF>
      <cc:Work
         rdf:about="">
        <dc:format>image/svg+xml</dc:format>
        <dc:type
           rdf:resource="http://purl.org/dc/dcmitype/StillImage" />
        <dc:title></dc:title>
      </cc:Work>
    </rdf:RDF>
  </metadata>
  <g
     inkscape:label="Layer 1"
     inkscape:groupmode="layer"
     id="layer1"
     transform="translate(-6.1297173,-913.75296)">
    <g
       transform="matrix(3.181818,0,0,3.181818,-1217.5066,-701.24058)"
       id="layer1-5"
       inkscape:label="Capa 1">
      <path
         inkscape:connector-curvature="0"
         style="opacity:1;fill:#ffffff;fill-opacity:1;fill-rule:nonzero;stroke:none;stroke-width:1.88860381;stroke-linejoin:miter;stroke-miterlimit:4;stroke-dasharray:none;stroke-opacity:1"
         d="m 404.68873,508.82637 a 18.85696,18.85696 0 0 0 -18.59335,15.71453 h 1.60551 a 17.285547,17.285547 0 0 1 16.98784,-14.14313 17.285547,17.285547 0 0 1 16.61344,12.57173 h -19.75625 v -4.71422 l -6.28863,6.28562 h 6.28863 20.42876 1.28282 a 18.85696,18.85696 0 0 0 -18.56877,-15.71453 z m -18.57178,22.00016 a 18.85696,18.85696 0 0 0 18.57178,15.71453 18.85696,18.85696 0 0 0 18.58734,-15.71453 h -1.60552 a 17.285547,17.285547 0 0 1 -16.98182,14.14313 17.285547,17.285547 0 0 1 -16.61644,-12.57173 h 19.75624 v 4.71422 l 6.28563,-6.28562 h -6.28563 -20.12764 -0.30061 z"
         id="rect955" />
    </g>
  </g>
</svg>
