/* XPM */
static char *close_xpm[] = {
"26 26 53 1",
"A	c #FF5C00",
"B	c #1A1E24",
"C	c #2C2321",
"D	c #603119",
"E	c #BA490B",
"F	c #F75A01",
"G	c #FF5C00",
"H	c #B9490B",
"I	c #5F3119",
"J	c #2D2421",
"K	c #C44C09",
"L	c #DE5305",
"M	c #964011",
"N	c #763716",
"O	c #974010",
"P	c #DF5305",
"Q	c #C24B0A",
"R	c #E05305",
"S	c #F35902",
"T	c #6F3517",
"U	c #1C1F24",
"V	c #713616",
"W	c #F45902",
"X	c #C34C09",
"Y	c #462A1D",
"Z	c #44291D",
"a	c #472A1D",
"b	c #C14B0A",
"c	c #45291D",
"d	c #FB5B01",
"e	c #5E3019",
"f	c #913E11",
"g	c #9A4010",
"h	c #923E11",
"i	c #994010",
"j	c #B8480B",
"k	c #1B1E24",
"l	c #F65901",
"m	c #984110",
"n	c #F55902",
"o	c #753616",
"p	c #763715",
"q	c #2B2321",
"r	c #773815",
"s	c #2A2221",
"t	c #1D1F24",
"u	c #B7480B",
"v	c #703616",
"w	c #733616",
"x	c #5D3019",
"y	c #482A1D",
"z	c #BF4A0A",
"0	c #723516",
"AAAAAAAAAAAAAAAAAAAAAAAAAA",
"BBBBBBBBBBBBBBBBBBBBBBBBBB",
"BBBBBBBBBBBBBBBBBBBBBBBBBB",
"BBBBBBBBBBBBBBBBBBBBBBBBBB",
"BBBBBBBBBBBBCCBBBBBBBBBBBB",
"BBBBBBBBBDEFGGFHIBBBBBBBBB",
"BBBBBBBJKGLMNNOPGQCBBBBBBB",
"BBBBBBJRSTUBBBBUVWPCBBBBBB",
"BBBBBBXSYZBBBBBBZaWbBBBBBB",
"BBBBBDGTcdOBBBBOdcVGeBBBBB",
"BBBBBELUBfGgBBhGiBUPjBBBBB",
"BBBBklMBBBOGMMGOBBBmnkBBBB",
"BBBBCGoBBBBfGGiBBBBpGqBBBB",
"BBBBqGNBBBBfGGiBBBBrGsBBBB",
"BBBBklOBBBOGMMGOBBBiWkBBBB",
"BBBBBHLUBhGiBBfGgBtRuBBBBB",
"BBBBBIGvcdOBBBBOdcwGxBBBBB",
"BBBBBBQWaZBBBBBBZyWzBBBBBB",
"BBBBBBCPW0UBBBBUwnLqBBBBBB",
"BBBBBBBCbGRmppmRGzqBBBBBBB",
"BBBBBBBBBejnGGnuxBBBBBBBBB",
"BBBBBBBBBBBBqqBBBBBBBBBBBB",
"BBBBBBBBBBBBBBBBBBBBBBBBBB",
"BBBBBBBBBBBBBBBBBBBBBBBBBB",
"BBBBBBBBBBBBBBBBBBBBBBBBBB",
"BBBBBBBBBBBBBBBBBBBBBBBBBB"
};
