/* XPM */
static char *hide_xpm[] = {
"26 26 60 1",
"A	c #FF5C00",
"B	c #1A1E24",
"C	c #2C2321",
"D	c #603119",
"E	c #BA490B",
"F	c #F75A01",
"G	c #FF5C00",
"H	c #B9490B",
"I	c #5F3119",
"J	c #2D2421",
"K	c #C44C09",
"L	c #DE5305",
"M	c #964011",
"N	c #763716",
"O	c #974010",
"P	c #DF5305",
"Q	c #C24B0A",
"R	c #E05305",
"S	c #F35902",
"T	c #6F3517",
"U	c #1C1F24",
"V	c #713616",
"W	c #F45902",
"X	c #C34C09",
"Y	c #462A1D",
"Z	c #472A1D",
"a	c #C14B0A",
"b	c #5E3019",
"c	c #272122",
"d	c #B8480B",
"e	c #3F281E",
"f	c #1B1E24",
"g	c #F65901",
"h	c #38261F",
"i	c #E55504",
"j	c #E95603",
"k	c #984110",
"l	c #F55902",
"m	c #753616",
"n	c #362520",
"o	c #E15405",
"p	c #EB5703",
"q	c #41291E",
"r	c #3D271E",
"s	c #E85604",
"t	c #39271F",
"u	c #763715",
"v	c #2B2321",
"w	c #773815",
"x	c #2A2221",
"y	c #39261F",
"z	c #994010",
"0	c #1D1F24",
"1	c #B7480B",
"2	c #703616",
"3	c #733616",
"4	c #5D3019",
"5	c #482A1D",
"6	c #BF4A0A",
"7	c #723516",
"AAAAAAAAAAAAAAAAAAAAAAAAAA",
"BBBBBBBBBBBBBBBBBBBBBBBBBB",
"BBBBBBBBBBBBBBBBBBBBBBBBBB",
"BBBBBBBBBBBBBBBBBBBBBBBBBB",
"BBBBBBBBBBBBCCBBBBBBBBBBBB",
"BBBBBBBBBDEFGGFHIBBBBBBBBB",
"BBBBBBBJKGLMNNOPGQCBBBBBBB",
"BBBBBBJRSTUBBBBUVWPCBBBBBB",
"BBBBBBXSYBBBBBBBBZWaBBBBBB",
"BBBBBDGTBBBBBBBBBBVGbBBBBB",
"BBBBBELUcdeBBBBedcUPdBBBBB",
"BBBBfgMBhijeBBejihBklfBBBB",
"BBBBCGmBBnopqrsitBBuGvBBBB",
"BBBBvGNBBBtijjitBBBwGxBBBB",
"BBBBfgOBBBByiiyBBBBzWfBBBB",
"BBBBBHLUBBBBttBBBB0R1BBBBB",
"BBBBBIG2BBBBBBBBBB3G4BBBBB",
"BBBBBBQWZBBBBBBBB5W6BBBBBB",
"BBBBBBCPW7UBBBBU3lLvBBBBBB",
"BBBBBBBCaGRkuukRG6vBBBBBBB",
"BBBBBBBBBbdlGGl14BBBBBBBBB",
"BBBBBBBBBBBBvvBBBBBBBBBBBB",
"BBBBBBBBBBBBBBBBBBBBBBBBBB",
"BBBBBBBBBBBBBBBBBBBBBBBBBB",
"BBBBBBBBBBBBBBBBBBBBBBBBBB",
"BBBBBBBBBBBBBBBBBBBBBBBBBB"
};
